<?xml version="1.0" encoding="utf-8"?>
<!-- Generator: Adobe Illustrator 23.1.0, SVG Export Plug-In . SVG Version: 6.00 Build 0)  -->
<svg version="1.1" id="Layer_1" xmlns="http://www.w3.org/2000/svg" xmlns:xlink="http://www.w3.org/1999/xlink" x="0px" y="0px"
	 viewBox="0 0 50 50" style="enable-background:new 0 0 50 50;" xml:space="preserve">
<style type="text/css">
	.st0{fill:#46B555;}
</style>
<g>
	<g>
		<path class="st0" d="M48.1,15.1c-1.3-3-3-5.6-5.3-7.9c-4.7-4.6-11-7.2-17.8-7.1c-3.6,0-6.8,0.6-9.9,1.9c-3,1.3-5.7,3-7.9,5.2
			c-2.3,2.2-4,4.8-5.3,7.9c-2.5,5.9-2.6,13.7,0,19.7c1.3,3,3,5.6,5.3,7.9c2.3,2.2,4.9,4,7.9,5.2c5.9,2.5,13.8,2.5,19.7,0
			c3-1.3,5.7-3,7.9-5.2c2.3-2.2,4-4.8,5.3-7.9C50.6,28.9,50.6,21.1,48.1,15.1z M41.5,17.4c-0.2,0.5-0.5,1-0.8,1.4l-0.3,0.4l-0.3-0.7
			c-0.8-2-2-3.7-3.5-5.2c-0.9-0.9-1.9-1.7-3-2.3c-0.1,0-0.2,0-0.3,0c-0.3,0.2-0.5,0.3-0.7,0.6c-0.3,0.4-0.6,0.8-0.8,1.3
			c-0.1,0.3-0.2,0.6-0.3,1c0,0.1,0,0.2,0.1,0.2c0.9,0.5,1.7,1.1,2.4,1.8c1.1,1.1,2.1,2.5,2.7,4c1.3,3,1.3,7,0,10
			c-0.6,1.5-1.6,2.9-2.7,4c-1.1,1.1-2.5,2-4,2.7c-1.5,0.6-3.3,1-5,1c-1.8,0-3.5-0.3-5-1c-1.5-0.6-2.9-1.5-4-2.7
			c-1.1-1.1-2.1-2.5-2.7-4c-1.3-3-1.3-7,0-10c0.6-1.5,1.6-2.9,2.7-4c1.1-1.1,2.5-2,4-2.7c1.5-0.6,3.4-1,5.2-1l0.3,0l-0.1,0.3
			c-0.4,2.1-0.2,4.3,0.6,6.1c0.5,1.3,1.2,2.4,2.1,3.4c0.9,1,2,1.7,3.2,2.2c1.1,0.5,2.3,0.7,3.5,0.8c0.1,0,0.1,0,0.2-0.1
			c0,0,0.1-0.1,0.1-0.2c0-1.1-0.2-2.3-0.5-3.3c0-0.1-0.1-0.1-0.2-0.2c-0.5-0.1-1.1-0.2-1.6-0.4c-0.8-0.3-1.5-0.8-2.1-1.4
			c-0.6-0.6-1-1.3-1.4-2.2c-0.6-1.6-0.6-3.8,0-5.5c0.3-0.8,0.8-1.6,1.4-2.2c0.6-0.6,1.3-1.1,2.1-1.4c1.6-0.7,3.6-0.7,5.2,0
			c0.8,0.3,1.5,0.8,2.1,1.4c0.6,0.6,1,1.3,1.4,2.2C42.1,13.5,42.1,15.8,41.5,17.4z"/>
	</g>
</g>
</svg>
