<?xml version="1.0" encoding="utf-8"?>
<!-- Generator: Adobe Illustrator 23.1.0, SVG Export Plug-In . SVG Version: 6.00 Build 0)  -->
<svg version="1.1" id="Layer_1" xmlns="http://www.w3.org/2000/svg" xmlns:xlink="http://www.w3.org/1999/xlink" x="0px" y="0px"
	 viewBox="0 0 126 15" style="enable-background:new 0 0 126 15;" xml:space="preserve">
<style type="text/css">
	.st0{enable-background:new    ;}
	.st1{fill:#46B569;}
</style>
<g class="st0">
	<path class="st1" d="M0.3,7.5c0-4.4,2.7-7.4,6.9-7.4c4.2,0,6.9,3,6.9,7.4c0,4.4-2.7,7.4-6.9,7.4C3,14.9,0.3,11.9,0.3,7.5z
		 M11.5,7.5c0-3.3-1.6-5.1-4.3-5.1S3,4.2,3,7.5c0,3.3,1.6,5.1,4.3,5.1S11.5,10.8,11.5,7.5z"/>
	<path class="st1" d="M32.1,7.7v6.8h-2.5V8.1c0-1.2-0.6-2-1.9-2c-0.9,0-1.6,0.4-2.1,1.2c0,0.1,0,0.3,0,0.4v6.8h-2.5V8.1
		c0-1.2-0.6-2-1.9-2c-0.9,0-1.6,0.4-2.1,1.1v7.3h-2.5V4.3h2.2L19,5.6C19.6,4.6,20.6,4,22,4c1.5,0,2.6,0.6,3.1,1.7
		C25.9,4.7,27,4,28.5,4C30.7,4,32.1,5.3,32.1,7.7z"/>
	<path class="st1" d="M34.8,4.3H37l0.2,1.3C37.8,4.6,38.8,4,40.2,4c2.2,0,3.6,1.3,3.6,3.7v6.8h-2.5V8.1c0-1.2-0.6-2-1.9-2
		c-0.9,0-1.6,0.4-2.1,1.1v7.3h-2.5V4.3z"/>
	<path class="st1" d="M46.5,0.5h2.4v2.2h-2.4V0.5z M46.5,4.3h2.4v10.2h-2.4V4.3z"/>
	<path class="st1" d="M51.3,9.4c0-3.3,2-5.4,5.3-5.4c1.1,0,2,0.2,2.7,0.7l-0.2,1.9C58.4,6.2,57.6,6,56.7,6c-1.7,0-3,1-3,3.3
		c0,2.4,1.3,3.4,3,3.4c0.9,0,1.7-0.2,2.5-0.6l-0.1,2.1c-0.9,0.5-1.7,0.6-2.5,0.6C53.3,14.9,51.3,12.7,51.3,9.4z"/>
	<path class="st1" d="M70.3,10.2h-6.9c0.2,1.8,1.3,2.5,3.1,2.5c1.2,0,2.4-0.3,3.5-1.1l-0.2,2.2c-1.1,0.7-2.4,1-3.6,1
		c-3.5,0-5.3-2-5.3-5.4c0-3.3,1.8-5.4,4.9-5.4c3,0,4.5,1.9,4.5,5C70.3,9.3,70.3,9.9,70.3,10.2z M63.4,8.5H68C67.9,6.9,67.2,6,65.8,6
		C64.2,6,63.5,6.9,63.4,8.5z"/>
	<path class="st1" d="M72.8,0.5h2.5v14.1h-2.5V0.5z"/>
	<path class="st1" d="M78,0.5h2.5v14.1H78V0.5z"/>
	<path class="st1" d="M88.7,7.5c0-4.4,2.7-7.4,6.9-7.4c4.2,0,6.9,3,6.9,7.4c0,4.4-2.7,7.4-6.9,7.4C91.4,14.9,88.7,11.9,88.7,7.5z
		 M99.9,7.5c0-3.3-1.6-5.1-4.3-5.1s-4.3,1.8-4.3,5.1c0,3.3,1.6,5.1,4.3,5.1S99.9,10.8,99.9,7.5z"/>
	<path class="st1" d="M104.9,4.3h2.2l0.2,1.3c0.6-0.9,1.7-1.6,3.1-1.6c2.2,0,3.6,1.3,3.6,3.7v6.8h-2.5V8.1c0-1.2-0.6-2-1.9-2
		c-0.9,0-1.6,0.4-2.1,1.1v7.3h-2.5V4.3z"/>
	<path class="st1" d="M125.6,10.2h-6.9c0.2,1.8,1.3,2.5,3.1,2.5c1.2,0,2.4-0.3,3.5-1.1l-0.2,2.2c-1.1,0.7-2.4,1-3.6,1
		c-3.5,0-5.3-2-5.3-5.4c0-3.3,1.8-5.4,4.9-5.4c3,0,4.5,1.9,4.5,5C125.7,9.3,125.6,9.9,125.6,10.2z M118.7,8.5h4.6
		c-0.1-1.6-0.7-2.4-2.2-2.4C119.6,6,118.9,6.9,118.7,8.5z"/>
</g>
</svg>
